<?xml version="1.0" standalone="no"?>
<!DOCTYPE svg PUBLIC "-//W3C//DTD SVG 20010904//EN"
 "http://www.w3.org/TR/2001/REC-SVG-20010904/DTD/svg10.dtd">
<svg version="1.0" xmlns="http://www.w3.org/2000/svg"
 width="1280.000000pt" height="960.000000pt" viewBox="0 0 1280.000000 960.000000"
 preserveAspectRatio="xMidYMid meet">
<metadata>
Created by potrace 1.15, written by Peter Selinger 2001-2017
</metadata>
<g transform="translate(0.000000,960.000000) scale(0.100000,-0.100000)"
fill="#000000" stroke="none">
<path d="M4941 8804 c-1 -21 -31 -43 -31 -23 0 6 -4 8 -9 5 -5 -3 -11 1 -15 9
-3 8 -10 15 -17 15 -6 0 -9 -6 -6 -14 3 -8 -1 -20 -9 -26 -8 -7 -14 -17 -14
-22 0 -5 -6 -16 -14 -23 -12 -12 -16 -12 -27 1 -10 12 -14 12 -20 2 -7 -10 -9
-9 -9 5 0 20 -16 23 -23 5 -3 -7 -6 -2 -6 11 -1 24 -1 24 -15 5 -8 -10 -12
-29 -9 -41 3 -13 1 -23 -5 -23 -5 0 -12 -14 -16 -31 -3 -17 -10 -28 -16 -24
-5 3 -10 -1 -10 -9 0 -9 -9 -16 -20 -16 -11 0 -20 -5 -20 -10 0 -6 -11 -16
-25 -22 -14 -6 -25 -17 -25 -24 0 -7 -9 -18 -20 -24 -11 -6 -17 -16 -14 -25 7
-18 -12 -20 -20 -2 -3 6 -5 0 -3 -15 2 -15 0 -33 -4 -40 -7 -10 -9 -8 -9 5 0
10 -4 15 -10 12 -5 -3 -10 -15 -10 -25 0 -10 -10 -26 -21 -34 -12 -8 -19 -21
-16 -29 7 -18 -21 -16 -32 2 -5 7 -7 -14 -5 -46 3 -56 2 -57 -12 -33 -9 14
-13 17 -10 7 16 -50 17 -65 5 -72 -8 -5 -10 -4 -5 3 4 7 2 20 -3 29 -10 17
-11 16 -9 -2 1 -11 0 -31 -1 -45 -1 -22 -3 -23 -14 -9 -15 20 -47 21 -40 1 5
-11 7 -11 15 0 7 9 8 8 4 -5 -3 -10 -6 -21 -6 -23 0 -3 -4 -2 -10 1 -13 8 -13
-11 1 -37 8 -14 8 -23 0 -31 -8 -8 -11 -6 -11 6 0 15 -3 16 -21 6 -15 -8 -19
-8 -15 0 4 6 3 11 -1 11 -15 0 -33 -39 -27 -57 5 -13 2 -11 -10 5 -20 25 -48
29 -66 7 -7 -8 -16 -12 -21 -9 -5 3 -9 0 -9 -5 0 -6 -5 -11 -11 -11 -8 0 -8 5
1 15 7 8 16 13 19 10 4 -2 8 2 8 10 0 19 -12 19 -30 0 -8 -8 -17 -11 -21 -8
-3 3 -8 -2 -12 -11 -3 -9 -10 -16 -16 -16 -5 0 -6 6 -2 13 6 8 3 8 -9 -1 -9
-8 -20 -11 -26 -8 -5 3 -12 0 -15 -6 -5 -10 -7 -10 -12 -1 -3 7 -12 9 -20 6
-8 -3 -14 0 -14 7 0 6 -4 8 -10 5 -13 -8 -51 -17 -72 -17 -9 1 -24 -8 -34 -19
-11 -12 -20 -15 -24 -9 -4 6 -14 3 -26 -8 -11 -10 -33 -22 -49 -26 -17 -4 -38
-15 -49 -24 -18 -16 -18 -16 -12 8 6 21 5 22 -4 8 -6 -10 -21 -18 -33 -18 -13
0 -28 -5 -35 -12 -9 -9 -12 -9 -12 3 -1 9 -7 7 -19 -8 -20 -24 -37 -31 -25
-10 9 13 -26 -11 -38 -28 -4 -6 -8 -6 -8 -1 0 6 10 21 23 35 17 20 17 22 2 9
-11 -9 -24 -17 -30 -17 -5 0 -12 -8 -16 -18 -7 -17 -8 -17 -8 0 -1 21 -10 22
-37 2 -12 -8 -25 -11 -29 -7 -3 4 -5 1 -3 -7 1 -8 -5 -17 -16 -19 -13 -3 -16
0 -11 10 4 7 -3 2 -15 -12 -12 -14 -19 -19 -15 -12 10 19 -13 14 -24 -5 -10
-17 -10 -16 -12 2 0 16 -3 14 -14 -10 -8 -16 -14 -25 -15 -18 0 19 -34 8 -46
-17 -12 -22 -12 -22 -19 -1 -9 29 -23 26 -38 -6 -19 -45 -43 -64 -38 -30 2 12
-17 8 -22 -5 -3 -7 -6 -2 -6 12 -1 19 -3 22 -10 10 -6 -8 -7 -18 -5 -22 3 -4
0 -8 -5 -8 -6 0 -11 -6 -11 -14 0 -8 -5 -18 -12 -22 -7 -5 -9 -2 -6 8 4 9 0
15 -8 15 -8 0 -14 -7 -14 -16 0 -14 -2 -14 -10 -1 -8 12 -10 9 -10 -12 0 -32
-16 -46 -23 -21 -3 10 -6 -2 -7 -27 l-2 -45 -13 40 c-11 35 -13 37 -14 13 -1
-15 -6 -30 -13 -34 -8 -5 -9 -2 -5 10 4 10 3 15 -3 11 -6 -3 -10 -18 -10 -33
0 -23 -1 -24 -13 -8 -8 11 -19 15 -30 10 -14 -5 -15 -9 -6 -20 8 -10 8 -14 1
-14 -6 0 -9 -8 -6 -17 5 -15 4 -16 -5 -3 -6 8 -11 23 -11 34 0 12 -5 16 -16
12 -9 -3 -18 -6 -20 -6 -2 0 -4 -9 -4 -19 0 -11 -8 -22 -17 -24 -17 -4 -17 -5
0 -6 9 0 17 -6 17 -12 0 -5 -4 -7 -10 -4 -5 3 -10 1 -10 -5 0 -8 -9 -10 -26
-6 -21 6 -25 4 -21 -8 4 -9 2 -16 -3 -16 -6 0 -10 5 -10 12 0 9 -3 9 -11 1 -6
-6 -17 -10 -23 -9 -6 2 -8 1 -3 -1 11 -7 9 -33 -3 -33 -5 0 -10 -7 -10 -15 0
-8 -6 -12 -15 -9 -22 9 -38 -5 -24 -22 11 -14 2 -18 -38 -17 -6 0 -9 -5 -7
-12 6 -14 -50 -40 -65 -30 -6 3 -11 0 -11 -7 0 -8 -3 -9 -8 -3 -4 6 -14 10
-22 10 -9 0 -17 12 -20 30 -4 24 -7 26 -12 13 -11 -27 -25 -22 -38 15 -10 24
-14 27 -17 15 -6 -24 -25 -23 -46 2 -20 24 -44 26 -69 4 -16 -16 -18 -15 -24
0 -4 11 -13 15 -26 10 -15 -4 -18 -3 -13 6 5 9 4 11 -4 6 -6 -4 -9 -11 -6 -16
3 -4 -2 -10 -10 -14 -10 -4 -15 1 -15 15 0 12 -5 19 -12 17 -7 -3 -28 12 -48
32 -19 20 -32 31 -27 26 13 -18 7 -28 -13 -23 -15 4 -20 0 -20 -14 0 -29 -31
-9 -55 35 -22 41 -34 45 -42 16 -3 -11 -10 -20 -15 -20 -6 0 -8 7 -4 15 10 27
-4 16 -16 -12 -9 -23 -12 -25 -15 -10 -5 18 -5 18 -19 0 -12 -16 -15 -16 -25
-3 -8 12 -9 8 -5 -15 5 -28 5 -28 -6 -7 -8 16 -17 21 -31 16 -11 -3 -17 -2
-14 3 4 5 0 10 -7 10 -8 0 -12 -7 -9 -15 5 -12 2 -12 -15 -3 -12 7 -22 8 -22
4 0 -4 -17 9 -37 28 -21 18 -32 27 -25 19 14 -17 16 -34 2 -25 -5 3 -10 -1
-10 -9 0 -20 -9 -20 -32 1 -17 15 -18 15 -16 -5 2 -11 -1 -21 -7 -20 -5 0 -9
5 -7 11 2 7 0 9 -3 5 -4 -4 -16 -3 -27 3 -19 10 -19 10 -3 -15 16 -24 16 -26
1 -26 -10 0 -14 -5 -11 -10 3 -6 -1 -17 -9 -26 -9 -9 -16 -11 -16 -4 0 6 -4 9
-9 5 -5 -3 -12 -1 -16 5 -3 5 -11 10 -18 10 -8 0 -8 -3 1 -12 14 -14 16 -32 4
-24 -5 3 -8 -5 -8 -17 1 -16 -4 -21 -18 -19 -11 2 -15 -1 -11 -7 3 -6 2 -11
-3 -11 -5 0 -8 -12 -6 -27 2 -16 1 -20 -2 -10 -3 9 -10 14 -16 11 -6 -4 -8 -3
-5 2 3 6 2 16 -4 24 -6 11 -9 12 -9 2 0 -7 -4 -10 -10 -7 -6 4 -7 -1 -3 -11 5
-13 3 -15 -8 -9 -11 7 -12 6 -2 -6 13 -17 2 -44 -19 -44 -16 0 -12 -73 5 -94
7 -8 7 -12 2 -9 -6 4 -17 3 -25 -3 -8 -5 -10 -9 -5 -9 6 0 11 -9 11 -20 0 -18
-2 -18 -23 -5 -17 11 -23 12 -23 3 0 -6 -7 -3 -15 8 -8 10 -15 14 -15 8 0 -6
7 -17 15 -24 8 -7 12 -16 9 -21 -3 -5 3 -6 12 -2 11 4 15 3 11 -4 -4 -6 -1
-14 5 -16 10 -4 10 -6 0 -6 -7 -1 -10 -5 -7 -11 3 -5 1 -10 -4 -10 -6 0 -11 5
-11 10 0 6 -4 10 -10 10 -6 0 -6 -9 -1 -22 5 -13 14 -22 20 -21 6 2 8 -4 4
-14 -4 -11 -3 -14 5 -9 7 4 12 2 12 -3 0 -6 -12 -11 -27 -11 l-28 -1 33 -14
c36 -16 42 -26 13 -20 -13 2 -18 -1 -15 -9 4 -10 -3 -12 -23 -9 l-28 5 30 -17
c50 -27 49 -33 -2 -30 l-48 4 35 -29 c19 -16 41 -30 47 -30 7 0 12 -3 11 -7 0
-5 6 -24 14 -42 9 -19 14 -41 11 -48 -3 -7 1 -13 9 -13 8 0 24 -14 36 -30 19
-25 21 -34 11 -52 -9 -18 -9 -20 4 -15 17 6 32 -19 17 -28 -6 -4 -10 -14 -10
-23 1 -15 3 -14 16 3 14 19 15 18 9 -12 -6 -37 1 -42 22 -15 11 13 13 14 12 2
-4 -38 2 -71 11 -65 6 3 10 -3 10 -15 0 -14 -4 -19 -13 -14 -7 4 -7 2 2 -7 10
-11 15 -11 18 -1 3 6 8 12 13 12 9 0 7 -26 -3 -36 -4 -4 -7 -14 -7 -23 0 -13
2 -13 9 -3 6 10 10 3 15 -23 4 -20 5 -40 2 -43 -3 -3 2 -12 12 -21 9 -9 19
-25 20 -36 5 -28 12 -32 12 -7 0 13 6 22 15 22 16 0 18 -5 15 -67 -1 -33 2
-43 14 -43 9 0 16 -8 15 -17 0 -11 -3 -13 -6 -5 -2 6 -9 12 -15 12 -6 0 -6 -6
2 -15 16 -19 30 -10 30 19 0 13 7 29 15 36 12 10 13 6 9 -27 -5 -40 -4 -39 26
30 7 17 8 13 4 -18 -4 -22 -6 -42 -6 -45 0 -70 3 -82 17 -76 10 4 19 -2 25
-17 l9 -22 0 22 c1 12 -4 25 -10 29 -8 4 -7 9 2 15 20 12 38 -27 39 -86 0 -35
3 -46 10 -35 8 12 10 12 16 -3 3 -9 1 -24 -6 -31 -15 -19 13 -78 34 -70 8 3
16 -4 20 -18 5 -18 8 -20 15 -9 7 11 10 11 16 0 6 -9 10 -8 16 7 7 16 8 16 8
-6 1 -15 -4 -31 -10 -37 -8 -8 -8 -13 0 -17 6 -4 11 -2 11 4 0 6 4 9 9 6 5 -4
12 0 15 6 3 7 3 2 0 -11 -4 -16 -2 -21 5 -17 7 4 9 1 5 -8 -3 -8 0 -23 6 -33
10 -16 11 -16 6 -1 -3 10 -1 20 3 23 10 6 25 -61 16 -74 -3 -6 -1 -12 5 -16 5
-3 10 -19 10 -35 0 -22 4 -28 15 -24 13 5 13 3 0 -22 -9 -17 -11 -30 -5 -32 6
-2 4 -13 -5 -25 -18 -25 -19 -37 -4 -37 5 0 8 4 5 9 -3 5 1 14 9 21 13 11 14
10 9 -5 -5 -11 -4 -16 3 -12 13 8 9 -59 -5 -76 -6 -7 -11 -22 -11 -32 0 -11
-2 -33 -5 -50 -19 -108 -19 -102 -2 -81 15 19 16 19 17 -10 0 -24 2 -26 8 -10
7 18 8 18 14 -5 4 -13 7 -34 7 -47 0 -12 7 -25 15 -28 8 -4 12 -11 8 -17 -4
-6 -7 -27 -8 -46 -2 -20 -6 -44 -10 -53 -4 -11 -3 -18 3 -18 6 0 9 -11 6 -25
-6 -36 4 -31 15 8 l9 32 1 -30 c0 -16 -3 -36 -8 -44 -5 -8 -5 -25 0 -40 11
-31 17 -80 19 -141 1 -41 2 -43 11 -20 6 14 8 42 5 63 -4 21 -2 37 3 37 5 0
13 -21 16 -47 10 -77 14 -90 30 -97 18 -7 21 24 3 42 -9 9 -9 12 -1 12 20 0
43 -43 43 -81 0 -21 5 -39 11 -41 9 -3 9 -14 -1 -42 -6 -20 -9 -40 -6 -43 3
-4 6 1 6 11 0 9 4 14 10 11 6 -3 10 2 11 12 1 28 19 -25 23 -67 6 -61 8 -66
16 -40 8 25 8 25 10 -5 5 -54 6 -60 18 -88 7 -16 12 -37 12 -48 0 -10 4 -19 9
-19 5 0 12 -8 14 -17 4 -14 5 -13 6 4 0 12 -3 24 -9 28 -5 3 -6 13 -3 21 5 14
8 12 19 -7 7 -13 13 -32 14 -41 0 -10 7 -18 15 -18 10 0 15 -10 15 -31 0 -16
4 -28 9 -24 6 3 8 -4 6 -16 -5 -22 10 -49 26 -49 5 0 5 7 2 17 -4 11 -3 14 5
9 7 -4 12 -16 12 -27 0 -11 4 -18 9 -15 4 3 16 -13 26 -35 23 -50 41 -64 21
-15 -15 35 -14 36 4 26 11 -6 19 -14 19 -18 -3 -20 2 -43 9 -38 4 2 8 -7 7
-21 0 -14 6 -27 13 -29 7 -1 8 0 3 2 -11 6 -3 34 9 34 4 0 13 -14 19 -31 9
-27 32 -56 107 -135 12 -13 20 -25 18 -28 -2 -3 -1 -4 3 -1 3 3 15 -3 26 -12
11 -10 17 -12 13 -5 -12 20 11 14 42 -13 17 -14 33 -25 37 -25 4 0 18 -9 32
-19 29 -24 62 -18 38 6 -20 19 -19 27 1 19 14 -6 15 -4 4 9 -9 10 -16 12 -20
5 -4 -6 -15 -1 -30 15 -26 28 -21 35 5 8 13 -12 19 -13 24 -4 6 9 11 8 21 -3
7 -9 16 -13 21 -11 4 3 21 -7 38 -22 65 -61 72 -64 64 -30 -3 12 9 -6 27 -40
19 -35 37 -63 42 -63 5 0 6 6 2 13 -5 8 -4 9 4 2 6 -5 12 -17 14 -25 3 -16 23
-38 53 -60 19 -14 19 -14 4 5 -32 40 -33 49 -3 28 16 -11 36 -20 44 -20 8 0
29 -4 45 -7 26 -6 28 -6 10 5 -19 12 -19 12 0 19 11 4 30 4 42 -1 18 -7 21 -5
16 8 -5 12 -3 14 8 8 12 -8 12 -6 0 8 -18 22 -10 21 33 -3 35 -19 35 -19 41 0
5 16 10 18 26 10 10 -6 19 -8 19 -5 0 3 10 0 23 -6 22 -12 22 -12 3 10 -11 11
-16 24 -12 29 4 4 14 -1 21 -11 9 -13 14 -14 17 -5 3 9 12 8 34 -6 l29 -19
-24 27 -25 26 35 -11 c19 -5 43 -15 54 -21 19 -10 19 -10 5 7 -13 17 -13 18 1
13 9 -4 22 -1 28 5 8 8 14 7 23 -4 7 -8 24 -23 38 -34 23 -19 24 -19 10 -1
-14 18 -14 19 8 7 17 -9 22 -9 22 1 1 7 10 2 20 -11 11 -13 20 -19 20 -13 0
16 50 1 64 -20 10 -15 15 -16 20 -6 5 10 7 10 12 0 3 -6 10 -9 16 -6 5 3 20
-4 34 -17 13 -12 24 -19 24 -15 0 5 7 3 15 -4 8 -7 24 -10 34 -7 21 5 30 -9
32 -46 0 -21 1 -21 9 -2 7 17 9 16 10 -10 2 -30 2 -30 10 -5 7 20 8 16 10 -25
1 -27 2 -54 1 -58 -1 -5 3 -6 9 -2 6 4 10 -5 10 -20 0 -15 4 -24 10 -20 6 3
10 -2 11 -12 0 -16 1 -16 8 2 6 15 9 10 14 -24 3 -24 9 -47 14 -50 5 -3 15
-32 22 -64 8 -36 16 -55 23 -51 7 5 9 -2 4 -20 -3 -14 -3 -26 2 -26 11 0 2
-82 -12 -100 -10 -13 -9 -13 8 0 18 14 18 13 12 -10 -7 -24 -6 -24 8 -6 20 25
20 14 1 -23 -16 -32 -15 -91 1 -112 7 -8 8 -23 4 -34 -10 -27 -2 -45 17 -38
12 5 13 2 5 -13 -6 -10 -15 -35 -21 -54 -10 -32 -9 -33 4 -16 17 23 19 10 5
-31 l-10 -28 20 24 c21 24 24 19 20 -28 -1 -17 2 -22 12 -18 11 4 13 -3 10
-27 l-3 -31 20 25 c25 30 27 20 5 -21 -8 -17 -13 -33 -10 -37 3 -3 6 -1 6 5 0
6 11 11 25 10 21 0 23 -2 14 -19 -7 -13 -7 -18 -1 -14 12 7 26 -29 18 -42 -3
-5 2 -18 12 -28 9 -10 18 -32 19 -49 4 -55 8 -73 15 -69 3 2 6 -19 6 -47 1
-33 7 -58 17 -69 9 -10 17 -27 18 -38 1 -16 4 -18 14 -10 10 8 13 1 14 -33 1
-37 2 -40 9 -19 7 22 8 21 9 -12 1 -27 5 -36 15 -32 10 4 12 -2 9 -21 -4 -20
-2 -24 11 -19 9 4 16 3 14 -2 -7 -25 14 -83 32 -89 11 -4 20 -11 20 -17 0 -5
7 -8 15 -4 23 8 18 -4 -12 -32 -27 -25 -27 -25 -4 -19 18 4 12 -4 -24 -36 -40
-35 -75 -83 -75 -101 0 -2 8 -12 17 -22 16 -15 16 -17 -1 -30 -10 -7 -15 -17
-11 -23 3 -7 -2 -11 -14 -11 -23 0 -26 -12 -11 -41 8 -14 7 -19 -3 -19 -10 0
-13 -8 -9 -27 5 -25 3 -26 -27 -20 -31 6 -31 6 -16 -17 18 -27 8 -42 -14 -23
-9 8 -25 17 -35 21 -20 7 -20 6 -1 -14 18 -20 18 -21 0 -14 -12 5 -16 4 -12
-3 5 -7 0 -9 -13 -6 -11 3 -20 0 -20 -6 0 -6 -7 -11 -15 -11 -11 0 -13 -8 -8
-32 5 -26 3 -30 -10 -25 -17 6 -25 -7 -22 -40 1 -12 -2 -20 -6 -17 -4 2 -13
-1 -21 -8 -19 -18 -38 -21 -53 -8 -10 8 -12 3 -9 -21 3 -27 2 -30 -11 -19 -10
9 -15 9 -15 1 0 -6 -7 -11 -16 -11 -9 0 -12 -5 -8 -12 5 -8 2 -9 -12 -4 -10 4
-15 4 -11 0 3 -4 -5 -17 -18 -28 -14 -12 -27 -31 -29 -41 -2 -11 -10 -33 -17
-50 -16 -39 -17 -48 -5 -57 7 -5 6 -22 -2 -53 -12 -45 -8 -95 8 -95 4 0 10 10
13 21 l6 22 29 -24 c27 -22 29 -28 24 -76 -5 -57 5 -68 29 -32 l14 21 27 -21
c22 -18 31 -19 55 -10 15 6 35 17 44 25 14 13 15 9 11 -41 -5 -57 4 -69 26
-35 l13 21 26 -21 c40 -31 70 -25 124 25 50 46 76 58 65 28 -4 -9 -9 -43 -13
-75 -5 -48 -3 -58 9 -58 9 0 21 13 28 30 15 35 21 37 45 10 29 -32 68 -26 96
15 13 19 27 35 31 35 4 0 24 14 44 32 54 47 64 45 64 -13 0 -27 4 -49 9 -49 5
0 21 14 34 31 l24 31 18 -29 c37 -63 74 -64 105 -2 25 49 50 62 86 49 25 -10
26 -9 13 6 -12 15 -12 16 9 10 12 -4 22 -4 21 1 -3 20 2 23 24 12 l22 -12 -23
26 c-29 31 -13 45 25 20 15 -9 25 -13 21 -9 -4 5 1 20 12 33 10 13 16 31 13
39 -3 8 0 21 7 29 7 8 10 22 6 30 -5 14 5 19 29 16 6 -1 1 6 -10 15 -20 15
-20 16 5 14 49 -4 57 -1 36 15 -19 14 -19 15 7 13 26 -2 31 -18 13 -46 -5 -8
9 -5 35 8 24 11 36 15 27 7 -10 -8 -18 -21 -18 -28 0 -8 -7 -24 -15 -37 -15
-20 -15 -21 2 -15 16 6 16 5 4 -10 -7 -9 -11 -26 -8 -37 3 -11 1 -20 -4 -20
-5 0 -9 -6 -9 -14 0 -8 -6 -17 -12 -19 -7 -2 -2 -3 12 -1 l26 3 -28 -57 c-28
-57 -33 -87 -22 -116 5 -13 15 -7 46 29 22 25 43 45 48 45 4 0 17 -16 29 -35
16 -28 19 -45 14 -85 -3 -30 -2 -50 4 -50 5 0 24 18 42 40 l33 41 27 -38 c41
-56 57 -66 94 -60 32 5 33 4 29 -24 -2 -16 -1 -37 2 -46 6 -15 11 -13 32 15
l25 32 39 -31 c45 -36 74 -34 123 7 37 31 61 32 54 2 -4 -12 -1 -28 5 -35 9
-11 17 -8 44 18 l32 31 32 -36 c25 -28 40 -36 65 -36 18 0 38 7 45 15 8 9 21
13 36 9 27 -7 84 13 84 28 0 6 9 8 20 5 15 -4 27 3 42 24 17 22 30 29 56 29
30 0 120 50 130 72 2 4 10 4 18 1 7 -3 17 2 20 11 6 15 8 15 31 1 24 -16 25
-16 18 7 -4 15 -3 19 3 10 10 -14 29 -13 48 3 9 8 9 14 0 24 -9 12 -8 13 4 6
8 -4 23 -15 33 -23 16 -14 17 -14 11 1 -7 20 7 22 25 5 10 -11 11 -9 5 6 -4
12 -4 17 2 13 5 -3 10 3 10 13 0 10 -4 17 -7 14 -4 -2 -10 0 -14 6 -9 14 18
13 33 -2 9 -9 12 -9 12 1 0 11 3 11 17 0 15 -13 15 -12 3 11 -11 21 -11 23 1
14 14 -12 32 -2 38 21 1 6 9 9 17 7 8 -2 19 9 26 23 10 23 20 29 41 26 4 -1 3
8 -3 19 -13 23 2 27 20 5 21 -25 23 -10 4 27 l-17 33 27 -24 c14 -14 26 -19
26 -12 0 7 5 9 10 6 6 -3 10 -1 10 5 0 6 5 8 12 4 8 -5 9 -2 4 11 -5 15 -4 16
9 5 13 -11 14 -10 8 6 -6 17 -5 17 10 5 15 -12 21 -9 18 12 0 4 3 7 9 7 5 0
10 -6 10 -12 0 -9 3 -8 10 2 6 9 5 17 -3 22 -8 5 -6 8 6 8 10 0 15 5 12 10 -3
6 -1 10 5 10 6 0 9 4 6 9 -3 5 1 12 10 15 9 3 14 12 11 20 -3 8 2 16 13 19 10
3 21 18 25 36 3 17 12 29 18 28 7 -1 12 11 12 30 0 24 3 29 12 21 17 -14 17
14 1 59 -12 33 -4 59 11 34 13 -20 17 4 15 80 -1 55 1 66 15 65 11 -1 19 12
25 47 5 26 13 47 18 47 4 0 8 13 8 28 0 15 5 33 11 39 7 7 13 22 15 35 8 58
20 82 34 73 5 -3 24 1 42 8 22 9 43 11 63 6 16 -5 39 -6 51 -3 16 4 24 0 29
-15 11 -35 52 -60 83 -52 15 4 37 3 49 -2 16 -7 34 -5 67 7 25 10 49 15 54 12
5 -3 20 6 32 19 16 17 34 25 58 25 22 0 47 9 67 25 49 36 135 67 152 53 11 -9
12 -7 7 8 -6 16 -5 17 7 7 16 -15 43 -17 34 -3 -4 6 -11 8 -16 5 -5 -4 -9 1
-9 9 0 17 33 17 47 1 5 -4 2 -5 -6 0 -10 5 -12 4 -7 -3 9 -14 44 2 52 23 3 8
13 11 22 7 14 -5 15 -3 5 10 -17 20 -5 30 20 17 17 -10 19 -9 15 9 -5 18 -4
19 21 6 15 -8 27 -10 29 -4 2 6 12 5 25 -2 21 -10 21 -10 7 7 -14 17 -14 18 9
6 22 -12 24 -12 18 8 -3 12 -1 19 4 15 5 -3 17 0 26 5 10 6 14 11 10 11 -10 0
18 30 28 30 7 0 42 33 37 34 -2 1 -1 8 2 16 8 26 26 114 31 148 2 18 9 49 16
70 7 20 13 42 14 47 1 12 11 36 36 91 11 22 19 46 19 53 0 7 4 10 9 7 5 -3 11
8 15 25 5 27 34 68 43 62 12 -10 22 3 33 41 8 30 17 43 25 39 9 -3 16 7 21 32
4 23 9 32 14 25 9 -15 30 17 30 45 0 9 5 13 10 10 6 -3 10 -3 11 2 3 32 11 57
24 69 8 9 15 22 15 30 0 8 4 13 9 10 8 -5 18 14 35 66 3 10 12 18 20 18 7 0
17 7 20 16 3 8 11 12 18 8 7 -5 9 -1 6 14 -5 16 -2 20 14 17 18 -4 20 0 14 26
-3 19 -2 28 4 24 6 -4 10 6 10 20 0 20 4 26 15 21 8 -3 16 -1 16 4 1 6 3 15 4
20 1 6 3 17 4 25 0 8 7 14 14 13 7 -2 13 9 15 25 2 17 8 25 14 21 8 -5 9 -1 5
10 -5 13 -3 17 7 13 10 -4 12 0 9 14 -3 10 0 19 6 19 6 0 11 15 11 33 0 24 3
28 10 17 8 -12 10 -8 11 15 1 17 3 23 6 12 2 -9 9 -15 14 -12 14 9 11 119 -3
134 -11 11 -10 12 0 6 9 -5 12 -1 10 11 -2 11 2 18 7 17 6 -1 11 20 11 47 1
53 19 87 38 71 11 -9 12 -2 18 108 1 30 3 32 15 15 12 -16 13 -16 13 8 0 15 5
28 11 30 9 3 9 10 -1 27 -8 17 -9 26 -1 30 11 7 19 38 20 79 1 26 20 30 22 5
1 -10 5 12 9 48 5 37 15 77 24 90 20 32 46 133 41 161 -3 12 -1 25 4 28 5 3
11 63 15 134 4 71 10 134 13 140 9 14 36 384 37 513 0 55 5 99 9 96 7 -4 6 25
-6 144 -1 12 -5 25 -9 29 -13 12 -9 56 4 48 8 -5 8 -3 2 7 -5 8 -10 23 -10 34
-1 11 -9 41 -18 68 -9 28 -11 47 -5 47 6 0 7 5 3 12 -4 6 -9 27 -11 46 -2 19
-9 44 -14 55 -8 14 -8 18 1 12 7 -4 6 5 -4 23 -8 16 -13 32 -10 34 2 3 1 24
-4 46 -8 34 -7 40 5 35 13 -5 13 -3 2 18 -7 13 -13 33 -13 45 -1 11 -7 28 -13
36 -7 8 -10 17 -7 21 3 3 -2 17 -11 31 -10 14 -13 26 -8 26 11 0 11 30 -1 48
-4 7 -10 25 -12 40 -3 15 -13 35 -22 45 -15 17 -15 17 4 11 17 -7 18 -6 4 10
-8 10 -15 23 -16 30 -1 6 -8 25 -15 41 -7 17 -13 35 -14 40 0 6 -4 16 -8 23
-5 6 -6 12 -3 12 3 0 -1 18 -9 40 -8 22 -11 40 -8 40 4 0 -3 10 -15 23 -11 12
-21 27 -22 32 -1 6 -10 28 -21 50 -18 38 -26 53 -49 93 -6 9 -13 24 -17 32 -4
8 -9 17 -13 20 -3 3 -21 30 -38 60 -50 84 -55 93 -77 113 -11 10 -14 16 -7 12
22 -11 12 13 -14 34 -15 12 -21 21 -14 21 9 0 7 8 -7 23 -26 28 -72 109 -71
122 1 6 -22 27 -52 48 -29 20 -50 37 -46 37 7 0 -12 27 -57 80 -6 8 -12 18
-12 22 0 4 -15 21 -33 38 -18 16 -31 34 -28 39 3 5 0 8 -7 7 -6 0 -14 3 -17 9
-10 19 -51 55 -63 55 -8 0 -7 3 2 9 11 7 9 10 -8 16 -11 3 -21 10 -21 14 0 4
-16 14 -36 21 -29 12 -32 15 -17 21 14 6 12 8 -9 8 -16 1 -28 5 -28 10 0 4
-19 21 -42 36 -49 32 -57 39 -101 81 -18 18 -42 34 -52 36 -11 2 -19 10 -17
17 1 6 -11 18 -28 25 -17 7 -28 15 -24 18 3 3 -7 9 -23 12 -16 4 -41 17 -55
31 -14 13 -42 27 -62 30 -20 4 -36 11 -36 15 0 4 -12 11 -26 14 -15 4 -24 10
-20 13 9 10 -52 33 -85 33 -17 0 -32 6 -35 15 -4 8 -14 15 -24 15 -29 0 -50
11 -43 23 3 5 1 7 -4 4 -6 -4 -24 -3 -39 2 -16 5 -42 12 -57 15 -17 4 -25 11
-21 18 5 7 -2 9 -20 6 -16 -3 -29 -1 -32 6 -3 7 -19 11 -37 11 -30 -1 -59 13
-52 25 2 3 -11 5 -28 5 -18 0 -31 5 -30 10 1 9 -21 13 -79 16 -10 0 -18 5 -18
11 0 6 -10 8 -23 4 -16 -4 -30 1 -43 13 -13 12 -27 16 -44 11 -37 -9 -48 -7
-65 15 -9 11 -14 15 -11 10 9 -19 -27 -32 -62 -23 -30 8 -32 11 -20 26 9 13 7
12 -10 -2 -20 -17 -22 -18 -22 -2 0 16 -2 16 -28 -2 -21 -15 -32 -18 -46 -10
-13 7 -23 5 -39 -9 -19 -16 -20 -16 -8 0 14 18 2 24 -15 7 -8 -8 -15 -6 -23 4
-10 12 -18 13 -33 5 -14 -7 -23 -7 -33 1 -10 8 -14 8 -18 -2 -4 -10 -7 -10
-14 -1 -7 10 -15 9 -37 -2 -37 -20 -39 -19 -33 8 6 22 6 22 -9 2 -8 -11 -19
-20 -25 -20 -5 0 -14 -7 -19 -15 -8 -12 -10 -12 -16 3 -6 17 -8 17 -25 1 -11
-9 -19 -14 -19 -10 0 4 -10 1 -22 -6 -13 -7 -27 -11 -32 -10 -4 2 -14 -3 -22
-9 -11 -9 -14 -8 -14 1 0 9 -7 7 -20 -5 -15 -14 -20 -15 -21 -4 0 8 -4 6 -9
-6 l-9 -20 -1 20 -1 20 -9 -20 c-6 -14 -9 -15 -10 -5 0 9 -6 6 -15 -10 -13
-22 -14 -23 -15 -5 0 16 -2 17 -10 5 -7 -12 -12 -12 -21 -3 -10 10 -17 9 -31
-4 -13 -11 -18 -12 -18 -3 0 8 -4 9 -12 3 -7 -5 -32 -9 -56 -8 -28 1 -41 -2
-39 -10 3 -6 -6 -10 -22 -10 -14 1 -32 -3 -38 -8 -9 -6 -13 -5 -13 3 0 10 -4
9 -17 -2 -30 -25 -76 -38 -131 -37 -40 1 -61 -4 -82 -20 -16 -11 -32 -17 -35
-11 -3 5 -12 7 -20 3 -9 -3 -22 0 -30 7 -12 10 -15 10 -15 0 0 -6 -6 -10 -12
-8 -7 3 -19 -1 -26 -9 -8 -7 -18 -10 -24 -7 -19 12 -96 15 -103 4 -3 -5 -13
-10 -21 -10 -8 0 -13 4 -9 9 10 16 -30 32 -45 18 -10 -10 -12 -8 -7 10 3 14 1
21 -7 20 -6 -1 -10 3 -9 10 2 8 -4 10 -14 6 -10 -4 -14 -2 -10 4 4 6 -9 23
-28 37 -44 34 -45 47 -2 36 29 -9 30 -8 13 5 -11 8 -25 15 -32 15 -7 0 -16 5
-19 10 -4 7 2 9 19 4 36 -9 33 9 -4 23 -16 6 -30 16 -30 21 0 6 18 1 39 -11
22 -12 38 -24 36 -27 -2 -3 9 -11 23 -17 19 -9 12 1 -23 32 -27 25 -59 48 -71
51 -21 5 -29 34 -10 34 6 1 0 8 -14 16 -14 8 -17 13 -8 10 19 -6 39 35 19 42
-6 2 -11 12 -11 23 0 13 5 17 18 13 9 -3 5 2 -10 10 -17 10 -25 22 -22 31 5
11 -2 15 -27 16 -19 1 -37 1 -41 0 -5 0 -8 3 -8 9 0 6 5 10 10 10 21 0 9 20
-15 26 -37 9 -30 24 13 25 l37 1 -31 9 c-17 5 -38 17 -45 26 -12 15 -12 16 5
9 19 -6 19 -6 3 12 -9 10 -15 21 -13 23 2 2 -7 5 -22 6 -14 0 -31 9 -38 18 -7
9 -17 14 -23 10 -6 -3 -11 -2 -11 4 0 5 10 13 22 17 19 6 19 7 5 16 -10 5 -22
6 -27 3 -6 -3 -10 1 -10 9 0 8 -5 27 -12 41 -9 21 -17 25 -35 20 -17 -4 -23
-1 -23 12 0 15 -2 16 -10 3 -5 -8 -10 -10 -10 -4 0 5 6 16 13 23 6 8 7 11 1 8
-6 -3 -18 8 -28 24 -11 19 -23 28 -32 25 -8 -3 -17 1 -20 9 -4 8 -10 12 -15 9
-5 -3 -9 1 -9 8 0 11 -2 11 -9 0 -6 -10 -14 -4 -30 23 -12 21 -25 34 -29 31
-3 -4 0 -11 8 -16 11 -7 7 -8 -12 -6 -15 1 -38 11 -50 22 -21 18 -21 18 -14 0
6 -17 5 -17 -10 -5 -16 13 -16 12 -5 -9 7 -13 10 -26 7 -30 -3 -3 -6 0 -6 6 0
7 -7 12 -15 12 -8 0 -15 7 -15 16 0 8 -5 12 -10 9 -6 -3 -13 0 -16 8 -2 7 -11
14 -18 14 -8 0 -12 -6 -9 -14 3 -9 0 -11 -10 -7 -9 3 -18 13 -20 22 -3 12 -5
11 -6 -4z m644 -514 c3 -6 -1 -7 -9 -4 -18 7 -21 14 -7 14 6 0 13 -4 16 -10z
m-1345 -211 c0 -6 -4 -7 -10 -4 -5 3 -10 11 -10 16 0 6 5 7 10 4 6 -3 10 -11
10 -16z m-240 -29 c-8 -5 -19 -10 -25 -10 -5 0 -3 5 5 10 8 5 20 10 25 10 6 0
3 -5 -5 -10z m-95 -10 c-3 -5 -11 -10 -16 -10 -6 0 -7 5 -4 10 3 6 11 10 16
10 6 0 7 -4 4 -10z m-828 -332 c-3 -8 -6 -5 -6 6 -1 11 2 17 5 13 3 -3 4 -12
1 -19z m-187 -78 c0 -5 -4 -10 -10 -10 -5 0 -10 5 -10 10 0 6 5 10 10 10 6 0
10 -4 10 -10z m-1073 -1457 c-3 -10 -5 -4 -5 12 0 17 2 24 5 18 2 -7 2 -21 0
-30z m150 -195 c-3 -7 -5 -2 -5 12 0 14 2 19 5 13 2 -7 2 -19 0 -25z m146
-578 c-3 -12 -8 -19 -11 -16 -5 6 5 36 12 36 2 0 2 -9 -1 -20z m54 -72 c-3 -8
-6 -5 -6 6 -1 11 2 17 5 13 3 -3 4 -12 1 -19z m7483 1 c0 -6 -4 -7 -10 -4 -5
3 -10 11 -10 16 0 6 5 7 10 4 6 -3 10 -11 10 -16z m-7489 -46 c-8 -15 -10 -15
-11 -2 0 17 10 32 18 25 2 -3 -1 -13 -7 -23z m106 -395 c-3 -8 -6 -5 -6 6 -1
11 2 17 5 13 3 -3 4 -12 1 -19z m328 -607 c4 -15 3 -21 -3 -17 -5 3 -12 17
-15 32 -5 30 8 20 18 -15z m241 -271 c6 0 11 -7 11 -15 0 -13 -2 -13 -17 0 -9
8 -20 12 -25 8 -4 -5 -5 0 -2 9 6 18 -15 43 -27 31 -4 -4 -4 1 0 10 6 16 9 14
28 -12 11 -17 26 -31 32 -31z m96 -55 c2 3 20 -12 39 -33 30 -33 30 -34 3 -9
-17 15 -33 25 -36 22 -2 -3 -13 5 -24 17 -12 14 -13 18 -3 10 9 -6 18 -10 21
-7z m573 -175 c3 -5 1 -10 -4 -10 -6 0 -11 5 -11 10 0 6 2 10 4 10 3 0 8 -4
11 -10z m-130 -10 c3 -6 -1 -7 -9 -4 -18 7 -21 14 -7 14 6 0 13 -4 16 -10z
m-30 -20 c3 -5 1 -10 -4 -10 -6 0 -11 5 -11 10 0 6 2 10 4 10 3 0 8 -4 11 -10z
m2529 -483 c-3 -8 2 -20 11 -27 12 -10 15 -10 15 4 0 10 5 14 10 11 6 -3 10
-16 10 -28 0 -20 0 -20 15 -1 8 10 15 15 14 9 -3 -23 3 -69 8 -58 3 8 13 4 31
-12 15 -14 35 -28 44 -31 10 -3 18 -18 21 -37 3 -23 5 -16 7 23 l3 55 6 -45
c6 -48 22 -57 31 -18 4 17 8 19 14 9 6 -10 10 -10 16 -1 4 7 17 9 33 5 25 -7
26 -10 21 -49 -3 -22 -16 -62 -28 -88 -13 -27 -18 -44 -12 -38 7 5 17 5 24 1
10 -6 4 -21 -23 -62 -45 -69 -46 -88 -2 -58 l32 22 -26 -29 c-14 -16 -31 -38
-39 -49 -14 -19 -14 -19 6 -2 23 19 39 23 29 7 -3 -5 -1 -10 5 -10 7 0 2 -16
-11 -37 -13 -20 -17 -33 -11 -29 16 9 16 -6 0 -22 -9 -9 -9 -12 0 -12 7 0 2
-18 -13 -44 -24 -43 -21 -66 8 -50 6 4 3 -2 -7 -14 -17 -19 -17 -22 -3 -22 10
0 17 5 17 12 0 6 3 8 6 5 4 -4 -1 -19 -11 -34 -18 -27 -18 -28 1 -12 33 28 51
35 32 12 -22 -24 -24 -40 -3 -23 13 11 14 10 9 -6 -4 -10 -12 -25 -18 -33 -8
-11 -8 -13 2 -7 6 4 12 3 12 -3 0 -5 -4 -13 -10 -16 -5 -3 -10 -11 -10 -16 0
-6 5 -7 11 -3 7 4 6 -3 -2 -17 -18 -33 -23 -79 -8 -79 6 0 0 -15 -14 -34 -27
-34 -26 -56 1 -33 13 10 14 9 8 -10 -4 -13 -1 -26 8 -35 9 -10 11 -20 4 -31
-6 -12 -5 -15 4 -12 18 7 42 -45 27 -59 -7 -8 -8 -6 -4 7 10 24 -2 21 -16 -4
-9 -17 -8 -20 2 -14 9 6 10 3 5 -10 -6 -18 -6 -18 15 1 l22 19 -19 -34 c-10
-18 -37 -54 -59 -80 -22 -25 -31 -39 -21 -31 18 14 19 13 14 -8 -6 -23 -6 -23
19 -6 24 15 25 15 20 0 -4 -11 -1 -16 10 -16 13 0 12 -5 -7 -25 -23 -25 -39
-78 -16 -55 15 15 29 12 23 -4 -4 -11 -1 -13 11 -9 14 5 15 4 6 -8 -6 -8 -14
-22 -17 -31 -4 -13 -2 -15 10 -11 15 6 15 5 0 -17 -12 -17 -13 -27 -6 -36 8
-10 4 -20 -14 -38 -14 -14 -22 -27 -19 -30 3 -3 -1 -6 -8 -6 -10 0 -11 -3 -3
-11 14 -14 -19 -49 -46 -49 -13 0 -23 -11 -31 -36 -11 -31 -14 -34 -22 -20 -9
16 -11 15 -29 -5 -10 -12 -19 -19 -19 -16 0 4 -11 2 -25 -3 -16 -6 -25 -6 -25
0 0 6 -4 10 -10 10 -5 0 -10 -7 -10 -15 0 -18 -20 -20 -20 -2 -1 6 -6 2 -13
-11 -7 -12 -16 -19 -20 -16 -4 4 -7 -6 -7 -22 l-1 -29 -14 25 -15 25 6 -30 c4
-20 3 -26 -4 -17 -7 11 -10 10 -16 -3 -3 -9 -4 -21 0 -26 3 -5 0 -9 -5 -9 -6
0 -11 7 -11 16 0 8 -4 13 -9 9 -6 -3 -14 3 -20 12 -9 16 -11 14 -17 -14 -7
-37 -36 -52 -61 -31 -14 12 -14 9 1 -19 9 -18 14 -33 12 -33 -13 0 -34 57 -26
70 6 9 3 18 -8 27 -10 7 -12 12 -5 13 7 0 10 7 7 15 -4 8 -2 15 4 15 5 0 10
12 10 26 0 15 5 30 11 34 7 4 11 11 10 16 -4 24 2 43 14 39 8 -4 12 8 11 39 0
25 3 43 8 40 4 -3 8 2 8 11 0 9 5 13 10 10 10 -6 15 21 11 63 -1 15 2 21 8 17
7 -4 11 6 11 24 0 17 4 31 9 31 17 0 19 40 6 102 -7 35 -10 68 -7 73 4 6 5 18
4 28 -2 9 2 17 9 17 8 0 10 12 5 41 -4 25 -3 38 3 35 5 -4 10 4 10 16 1 50 3
58 11 58 5 0 2 13 -6 29 -18 37 -9 67 15 49 13 -10 13 -9 -1 8 -14 16 -15 23
-5 33 9 11 9 14 0 18 -7 3 -13 11 -13 19 0 9 -4 13 -9 10 -5 -4 -8 2 -6 11 1
10 -3 28 -11 40 -13 20 -12 22 3 16 10 -4 14 -2 10 4 -3 5 -9 24 -12 43 -5 28
-3 31 12 26 16 -6 16 -6 0 12 -13 14 -14 21 -5 30 9 9 9 12 0 12 -8 0 -9 7 -3
23 4 12 6 28 4 35 -3 6 0 12 5 12 9 0 7 81 -3 108 -3 7 0 10 5 7 6 -3 10 2 11
12 0 10 3 29 6 43 2 14 5 37 5 53 1 26 2 27 19 11 17 -16 18 -15 6 15 -6 17
-16 31 -22 31 -5 1 1 7 15 15 14 8 19 14 11 15 -7 0 -11 6 -8 14 3 7 0 22 -7
32 -7 11 -12 28 -10 39 2 11 -4 31 -13 45 l-16 25 29 -19 c28 -18 28 -18 -5
18 -19 19 -31 39 -27 43 4 4 10 3 14 -2 4 -6 14 -11 22 -13 10 -2 6 6 -9 22
-25 26 -17 37 9 14 8 -7 7 -4 -3 8 -9 11 -14 24 -10 27 3 4 -2 17 -13 29 -10
13 -12 17 -4 11 19 -18 35 -16 21 1 -9 11 -9 16 0 22 7 4 15 2 17 -4 2 -7 8
-12 13 -12 6 0 7 5 4 10 -3 6 -3 15 0 20 9 15 15 12 9 -3z m113 -74 c-3 -10
-5 -4 -5 12 0 17 2 24 5 18 2 -7 2 -21 0 -30z m-1646 -246 c-10 -9 -11 -8 -5
6 3 10 9 15 12 12 3 -3 0 -11 -7 -18z m4029 -959 c0 -12 -6 -9 -26 13 -19 22
-19 22 4 8 12 -8 22 -17 22 -21z m-2845 -708 c3 -5 1 -10 -4 -10 -6 0 -11 5
-11 10 0 6 2 10 4 10 3 0 8 -4 11 -10z m-15 -20 c22 -7 20 -8 -12 -7 -21 1
-38 5 -38 9 0 10 16 9 50 -2z m-150 -176 c0 -8 -19 -13 -24 -6 -3 5 1 9 9 9 8
0 15 -2 15 -3z m1540 -174 c0 -5 -2 -10 -4 -10 -3 0 -8 5 -11 10 -3 6 -1 10 4
10 6 0 11 -4 11 -10z"/>
<path d="M5565 8351 c-3 -5 -2 -12 3 -15 5 -3 9 1 9 9 0 17 -3 19 -12 6z"/>
<path d="M5754 7997 c16 -20 30 -37 33 -37 7 0 -36 58 -49 66 -7 4 1 -9 16
-29z"/>
<path d="M2421 7494 c0 -11 3 -14 6 -6 3 7 2 16 -1 19 -3 4 -6 -2 -5 -13z"/>
<path d="M1490 6751 c0 -6 4 -13 10 -16 6 -3 7 1 4 9 -7 18 -14 21 -14 7z"/>
<path d="M2132 5085 c0 -16 2 -22 5 -12 2 9 2 23 0 30 -3 6 -5 -1 -5 -18z"/>
<path d="M2265 4790 c3 -5 8 -10 11 -10 2 0 4 5 4 10 0 6 -5 10 -11 10 -5 0
-7 -4 -4 -10z"/>
<path d="M2272 4760 c0 -8 4 -26 8 -40 6 -20 8 -21 8 -5 0 11 -3 29 -8 40 -5
12 -8 14 -8 5z"/>
<path d="M2316 4617 c3 -10 9 -15 12 -12 3 3 0 11 -7 18 -10 9 -11 8 -5 -6z"/>
<path d="M5290 1055 c0 -2 10 -10 23 -16 20 -11 21 -11 8 4 -13 16 -31 23 -31
12z"/>
</g>
</svg>
